# xmcd
# 
# Track frame offsets:
#     150
#     12238
#     28163
#     42816
#     55026
#     67161
#     71553
#     99352
#     122332
#     162169
# 
# Disc length: 2761
# 
# Revision: 1
# Processed by: cddbd v1.5.2PL0 Copyright (c) Steve Scherf et al.
# Submitted via: fre:ac v1.0.27
# 
DISCID=7c0ac70a
DTITLE=Various Artist - in English 06-2011 - The World of Work
DYEAR=2011
DGENRE=Speech
TTITLE0=Hard Work W1 - Who Has Which Job
TTITLE1=Hard Work W2 - Child Labour
TTITLE2=Hard Work W3 - A Working Day
TTITLE3=Hard Work F1 - A Song - Work, Work, Work, Work
TTITLE4=Hard Work F1 - A Song - Work, Work, Work, Work (playback)
TTITLE5=All Work and No Play W5 - Business Telephone Call
TTITLE6=Vocational Training in the US W1 - Howard High School of Technology
TTITLE7=Vocational Training in the US W2 - Service Learning
TTITLE8=Vocational Training in the US W3 - An Interview with Chandra Wilkins
TTITLE9=data - Data track
EXTD=http://www.arbeitsblaetter-online.de/Unterrichtsmaterialien/in+Englisch/The+World+of+Work_44443.html
EXTT0=
EXTT1=
EXTT2=
EXTT3=
EXTT4=
EXTT5=
EXTT6=
EXTT7=
EXTT8=
EXTT9=
PLAYORDER=
